<?xml version="1.0" encoding="iso-8859-1"?>
<!-- Generator: Adobe Illustrator 28.5.0, SVG Export Plug-In . SVG Version: 9.03 Build 54727)  -->
<svg version="1.1" id="Layer_1" xmlns="http://www.w3.org/2000/svg" xmlns:xlink="http://www.w3.org/1999/xlink" x="0px" y="0px"
	 viewBox="0 0 30 30" style="enable-background:new 0 0 30 30;" xml:space="preserve">
<g style="display:none;">
	<path style="display:inline;fill:#BD264D;" d="M9.881,15.19V2.69c0-0.513,0.425-0.937,0.938-0.937h11.25
		c3.275,0,5.938,2.662,5.938,5.938v10c0,0.513-0.425,0.938-0.938,0.938h-13.75C11.419,18.627,9.881,17.09,9.881,15.19z M26.131,7.69
		c0-2.238-1.825-4.062-4.062-4.062H11.756V15.19c0,0.862,0.7,1.562,1.562,1.562h12.812V7.69z"/>
	<path style="display:inline;fill:#BD264D;" d="M1.131,21.44v-3.75c0-0.513,0.425-0.938,0.937-0.938h3.75
		c0.175,0,0.312-0.138,0.312-0.312v-3.75c0-0.175-0.138-0.312-0.312-0.312H4.206c-0.338,0-0.65-0.175-0.812-0.462
		c-0.163-0.288-0.163-0.65,0-0.938L5.531,7.24c0.613-1.075,1.75-1.738,2.988-1.738h2.3c0.513,0,0.938,0.425,0.938,0.938v8.75
		c0,0.862,0.7,1.562,1.562,1.562h13.75c0.512,0,0.938,0.425,0.938,0.938v3.75c0,2.587-2.1,4.688-4.688,4.688h-1.25
		c-0.513,0-0.938-0.425-0.938-0.938c0-0.862-0.7-1.562-1.562-1.562c-0.863,0-1.562,0.7-1.562,1.562c0,0.513-0.425,0.938-0.938,0.938
		h-5c-0.513,0-0.938-0.425-0.938-0.938c0-0.862-0.7-1.562-1.562-1.562s-1.562,0.7-1.562,1.562c0,0.513-0.425,0.938-0.938,0.938
		h-1.25C3.231,26.127,1.131,24.027,1.131,21.44z M9.556,21.752c1.575,0,2.9,1.062,3.312,2.5h3.388c0.413-1.438,1.737-2.5,3.312-2.5
		c1.575,0,2.9,1.062,3.312,2.5h0.438c1.55,0,2.812-1.263,2.812-2.812v-2.812H13.319c-1.9,0-3.438-1.538-3.438-3.438V7.377H8.519
		c-0.563,0-1.088,0.3-1.363,0.788l-1.337,2.337c1.212,0,2.188,0.988,2.188,2.188v3.75c0,1.2-0.987,2.188-2.188,2.188H3.006v2.812
		c0,1.55,1.263,2.812,2.812,2.812h0.438C6.669,22.815,7.981,21.752,9.556,21.752z"/>
	<path style="display:inline;fill:#BD264D;" d="M16.131,25.19c0-1.9,1.538-3.438,3.438-3.438s3.438,1.538,3.438,3.438
		s-1.538,3.438-3.438,3.438S16.131,27.09,16.131,25.19z M18.006,25.19c0,0.862,0.7,1.562,1.562,1.562c0.862,0,1.562-0.7,1.562-1.562
		s-0.7-1.562-1.562-1.562C18.706,23.627,18.006,24.327,18.006,25.19z"/>
	<path style="display:inline;fill:#BD264D;" d="M6.131,25.19c0-1.9,1.538-3.438,3.438-3.438s3.438,1.538,3.438,3.438
		s-1.538,3.438-3.438,3.438S6.131,27.09,6.131,25.19z M8.006,25.19c0,0.862,0.7,1.562,1.562,1.562s1.562-0.7,1.562-1.562
		s-0.7-1.562-1.562-1.562S8.006,24.327,8.006,25.19z"/>
	<path style="display:inline;fill:#BD264D;" d="M1.131,17.69v-2.5c0-0.163,0.05-0.325,0.125-0.462l2.138-3.75
		c0.162-0.3,0.475-0.475,0.812-0.475h1.612c1.2,0,2.188,0.988,2.188,2.188v3.75c0,1.2-0.987,2.188-2.188,2.188h-3.75
		C1.556,18.627,1.131,18.202,1.131,17.69z M4.756,12.377l-1.75,3.062v1.312h2.812c0.175,0,0.312-0.138,0.312-0.312v-3.75
		c0-0.175-0.138-0.312-0.312-0.312H4.756z"/>
</g>
<g>
	<path style="fill:#A7B7DD;" d="M27.5,11.562h-25c-0.513,0-0.938-0.425-0.938-0.938S1.987,9.688,2.5,9.688h25
		c0.513,0,0.938,0.425,0.938,0.938S28.013,11.562,27.5,11.562z"/>
	<path style="fill:#A7B7DD;" d="M10,21.562H7.5c-0.512,0-0.938-0.425-0.938-0.938s0.425-0.938,0.938-0.938H10
		c0.512,0,0.938,0.425,0.938,0.938S10.512,21.562,10,21.562z"/>
	<path style="fill:#A7B7DD;" d="M18.125,21.562h-5c-0.512,0-0.938-0.425-0.938-0.938s0.425-0.938,0.938-0.938h5
		c0.513,0,0.938,0.425,0.938,0.938S18.638,21.562,18.125,21.562z"/>
	<path style="fill:#A7B7DD;" d="M21.95,26.562H8.05c-4.975,0-6.488-1.5-6.488-6.425V9.863c0-4.925,1.513-6.425,6.488-6.425h13.887
		c4.975,0,6.487,1.5,6.487,6.425v10.262C28.438,25.062,26.925,26.562,21.95,26.562z M8.05,5.312c-3.925,0-4.613,0.675-4.613,4.55
		v10.262c0,3.875,0.688,4.55,4.613,4.55h13.887c3.925,0,4.612-0.675,4.612-4.55V9.863c0-3.875-0.688-4.55-4.612-4.55H8.05z"/>
</g>
</svg>
